<?xml version="1.0" encoding="UTF-8" standalone="no"?>
<svg width="253px" height="31px" viewBox="0 0 253 31" version="1.1" xmlns="http://www.w3.org/2000/svg" xmlns:xlink="http://www.w3.org/1999/xlink" xmlns:sketch="http://www.bohemiancoding.com/sketch/ns">
    <!-- Generator: Sketch 3.5.2 (25235) - http://www.bohemiancoding.com/sketch -->
    <title>logo-koma-wide</title>
    <desc>Created with Sketch.</desc>
    <defs></defs>
    <g id="Úvodní-strana-=-hlavní-rozcestník" stroke="none" stroke-width="1" fill="none" fill-rule="evenodd" sketch:type="MSPage">
        <g id="Základní-rozcestník-L(iPad)" sketch:type="MSArtboardGroup" transform="translate(-109.000000, -25.000000)">
            <g id="TOP-NAV-Ipad-Landcape" sketch:type="MSLayerGroup" transform="translate(-1.000000, -1.000000)">
                <g id="Logo-KOMA-Katalog" transform="translate(76.000000, 0.000000)" sketch:type="MSShapeGroup">
                    <g id="logo-koma-wide" transform="translate(34.000000, 26.000000)">
                        <path d="M164.04,24 L167.656,24 L157.096,12.608 L167.304,1.6 L164.008,1.6 L153.896,12.512 L153.896,1.6 L151.24,1.6 L151.24,24 L153.896,24 L153.896,13.056 L164.04,24 Z M182.6,24 L182.6,11.872 C182.6,9.152 180.808,7.36 178.12,7.36 L174.28,7.36 C171.592,7.36 169.768,9.152 169.768,11.872 L169.768,12.64 L172.264,12.64 L172.264,11.808 C172.264,10.4 173.16,9.504 174.568,9.504 L177.8,9.504 C179.24,9.504 180.136,10.4 180.136,11.808 L180.136,15.488 C179.368,14.912 178.376,14.56 177.224,14.56 L173.64,14.56 C170.952,14.56 169.128,16.352 169.128,19.072 L169.128,19.488 C169.128,22.176 170.952,24 173.64,24 L177.224,24 C178.536,24 179.656,23.584 180.424,22.816 L180.68,24 L182.6,24 Z M177.8,21.856 L173.928,21.856 C172.52,21.856 171.624,20.96 171.624,19.52 L171.624,18.848 C171.624,17.44 172.52,16.544 173.928,16.544 L177.8,16.544 C179.176,16.544 180.04,17.344 180.136,18.656 L180.136,19.744 C180.04,21.056 179.176,21.856 177.8,21.856 L177.8,21.856 Z M184.84,9.504 L189,9.504 L189,24 L191.496,24 L191.496,9.504 L195.656,9.504 L195.656,7.36 L191.496,7.36 L191.496,1.536 L189,2.24 L189,7.36 L184.84,7.36 L184.84,9.504 Z M210.568,24 L210.568,11.872 C210.568,9.152 208.776,7.36 206.088,7.36 L202.248,7.36 C199.56,7.36 197.736,9.152 197.736,11.872 L197.736,12.64 L200.232,12.64 L200.232,11.808 C200.232,10.4 201.128,9.504 202.536,9.504 L205.768,9.504 C207.208,9.504 208.104,10.4 208.104,11.808 L208.104,15.488 C207.336,14.912 206.344,14.56 205.192,14.56 L201.608,14.56 C198.92,14.56 197.096,16.352 197.096,19.072 L197.096,19.488 C197.096,22.176 198.92,24 201.608,24 L205.192,24 C206.504,24 207.624,23.584 208.392,22.816 L208.648,24 L210.568,24 Z M205.768,21.856 L201.896,21.856 C200.488,21.856 199.592,20.96 199.592,19.52 L199.592,18.848 C199.592,17.44 200.488,16.544 201.896,16.544 L205.768,16.544 C207.144,16.544 208.008,17.344 208.104,18.656 L208.104,19.744 C208.008,21.056 207.144,21.856 205.768,21.856 L205.768,21.856 Z M215.048,24 L217.544,24 L217.544,0.32 L215.048,0.32 L215.048,24 Z M232.712,19.264 C232.712,20.832 231.72,21.856 230.12,21.856 L226.76,21.856 C225.192,21.856 224.2,20.832 224.2,19.264 L224.2,12.064 C224.2,10.496 225.192,9.504 226.76,9.504 L230.12,9.504 C231.72,9.504 232.712,10.496 232.712,12.064 L232.712,19.264 Z M235.176,19.232 L235.176,12.128 C235.176,9.248 233.288,7.36 230.408,7.36 L226.472,7.36 C223.624,7.36 221.704,9.248 221.704,12.128 L221.704,19.232 C221.704,22.08 223.624,24 226.472,24 L230.408,24 C233.288,24 235.176,22.08 235.176,19.232 L235.176,19.232 Z M252.488,7.36 L250.568,7.36 L250.312,8.672 C249.48,7.84 248.296,7.36 246.856,7.36 L243.784,7.36 C240.936,7.36 239.016,9.248 239.016,12.128 L239.016,19.232 C239.016,22.08 240.936,24 243.784,24 L246.856,24 C248.136,24 249.192,23.616 250.024,22.944 L250.024,25.696 C250.024,27.264 249,28.256 247.432,28.256 L244.072,28.256 C242.504,28.256 241.512,27.264 241.512,25.696 L241.512,25.12 L239.016,25.12 L239.016,25.632 C239.016,28.48 240.936,30.4 243.784,30.4 L247.752,30.4 C250.568,30.4 252.488,28.48 252.488,25.632 L252.488,7.36 Z M241.512,12.064 C241.512,10.496 242.504,9.504 244.072,9.504 L247.432,9.504 C249,9.504 250.024,10.496 250.024,12.064 L250.024,19.264 C250.024,20.832 249,21.856 247.432,21.856 L244.072,21.856 C242.504,21.856 241.512,20.832 241.512,19.264 L241.512,12.064 Z" id="Katalog" fill="#B5BBB4"></path>
                        <g id="LOGO-KOMA" transform="translate(0.000000, 1.000000)" fill="#D10B10">
                            <path d="M134,24 L121.129212,0 L114.193915,0 L101.323126,24 L108.741545,24 L110.812538,19.8857814 L124.062449,19.8857814 L126.167477,24 L134,24 Z M120.956668,13.7142186 L113.952354,13.7142186 L117.437257,6.78829631 L120.956668,13.7142186 Z M90.4202776,24 L97.3215388,24 L97.3215388,0 L90.4202776,0 L81.3099889,11.2801644 L72.2011183,0 L65.2998571,0 L65.2998571,24 L72.2011183,24 L72.2011183,10.6967805 L81.3099889,21.9426558 L90.4202776,10.6967805 L90.4202776,24 Z M59.5945813,18.5142186 L59.5945813,5.48578139 C59.5945813,2.19403073 57.3860265,0 52.6933202,0 L37.6829944,0 C32.990288,0 30.7822059,2.19403073 30.7822059,5.48578139 L30.7822059,18.5142186 C30.7822059,21.8059693 32.990288,24 37.6829944,24 L52.6933202,24 C57.3860265,24 59.5945813,21.8059693 59.5945813,18.5142186 L59.5945813,18.5142186 Z M52.6933202,17.3141012 C52.6933202,17.6569919 52.5207768,17.8284372 52.1756901,17.8284372 L38.2006244,17.8284372 C37.8555377,17.8284372 37.6829944,17.6569919 37.6829944,17.3141012 L37.6829944,6.6854291 C37.6829944,6.34253841 37.8555377,6.17109306 38.2006244,6.17109306 L52.1756901,6.17109306 C52.5207768,6.17109306 52.6933202,6.34253841 52.6933202,6.6854291 L52.6933202,17.3141012 Z M28.8473568,24 L15.6314818,11.6573442 L28.1571834,0 L18.7367894,0 L9.44072108,8.9137489 L6.90126118,8.9137489 L6.90126118,0 L0,0 L0,24 L6.90126118,24 L6.90126118,15.0862511 L9.61799164,15.0862511 L18.9093327,24 L28.8473568,24 Z" id="Fill-1"></path>
                        </g>
                    </g>
                </g>
            </g>
        </g>
    </g>
</svg>