<?xml version="1.0" encoding="UTF-8" standalone="no"?>
<svg width="159px" height="29px" viewBox="0 0 159 29" version="1.1" xmlns="http://www.w3.org/2000/svg" xmlns:xlink="http://www.w3.org/1999/xlink" xmlns:sketch="http://www.bohemiancoding.com/sketch/ns">
    <!-- Generator: Sketch 3.5.1 (25234) - http://www.bohemiancoding.com/sketch -->
    <title>logo-koma</title>
    <desc>Created with Sketch.</desc>
    <defs></defs>
    <g id="Page-1" stroke="none" stroke-width="1" fill="none" fill-rule="evenodd" sketch:type="MSPage">
        <g id="logo-koma" sketch:type="MSLayerGroup" fill="#C5222A">
            <g id="Vstupní-strana" sketch:type="MSShapeGroup">
                <g id="Vstupní-strana-P(iPad)">
                    <g id="Login-screen">
                        <g id="LOGO-KOMA-Modular">
                            <path d="M33.8485325,29 L18.3412087,14.0856819 L33.0386926,0 L21.9849333,0 L11.0770561,10.7705691 L8.09728918,10.7705691 L8.09728918,0 L0,0 L0,29 L8.09728918,29 L8.09728918,18.2288633 L11.2850629,18.2288633 L22.187948,29 L33.8485325,29 L33.8485325,29 L33.8485325,29 Z M62.7193396,20.3817391 C62.7193396,20.7941011 62.5133453,21 62.1013567,21 L45.4175112,21 C45.0049582,21 44.7995283,20.7941011 44.7995283,20.3817391 L44.7995283,7.61769683 C44.7995283,7.20589894 45.0049582,7 45.4175112,7 L62.1013567,7 C62.5133453,7 62.7193396,7.20589894 62.7193396,7.61769683 L62.7193396,20.3817391 L62.7193396,20.3817391 L62.7193396,20.3817391 Z M70.6837002,22.3709097 L70.6837002,6.62909034 C70.6837002,2.65163614 68.0891088,0 62.5761575,0 L44.9427104,0 C39.4292037,0 36.8351677,2.65163614 36.8351677,6.62909034 L36.8351677,22.3709097 C36.8351677,26.3483639 39.4292037,29 44.9427104,29 L62.5761575,29 C68.0891088,29 70.6837002,26.3483639 70.6837002,22.3709097 L70.6837002,22.3709097 L70.6837002,22.3709097 Z M106.334031,29 L114.487683,29 L114.487683,0 L106.334031,0 L95.5728855,13.6304995 L84.8100645,0 L76.6569706,0 L76.6569706,29 L84.8100645,29 L84.8100645,12.9250235 L95.5728855,26.5140911 L106.334031,12.9250235 L106.334031,29 L106.334031,29 L106.334031,29 Z M142.362945,16 L134.398585,16 L138.360878,8 L142.362945,16 L142.362945,16 L142.362945,16 Z M158.291667,29 L142.998755,0 L134.757759,0 L119.465409,29 L128.280444,29 L130.74061,24.0281822 L146.483991,24.0281822 L148.98516,29 L158.291667,29 L158.291667,29 L158.291667,29 Z" id="Fill-2"></path>
                        </g>
                    </g>
                </g>
            </g>
        </g>
    </g>
</svg>