<?xml version="1.0" encoding="UTF-8" standalone="no"?>
<svg width="30px" height="30px" viewBox="0 0 30 30" version="1.1" xmlns="http://www.w3.org/2000/svg" xmlns:xlink="http://www.w3.org/1999/xlink" xmlns:sketch="http://www.bohemiancoding.com/sketch/ns">
    <!-- Generator: Sketch 3.5.1 (25234) - http://www.bohemiancoding.com/sketch -->
    <title>user</title>
    <desc>Created with Sketch.</desc>
    <defs></defs>
    <g id="Navigační-obrazovky" stroke="none" stroke-width="1" fill="none" fill-rule="evenodd" sketch:type="MSPage">
        <g id="Procházení-struktury-P(iPad)-Povrchy" sketch:type="MSArtboardGroup" transform="translate(-716.000000, -23.000000)" fill="#434343">
            <g id="TOP-NAV/iPad-Portrait" sketch:type="MSLayerGroup" transform="translate(-1.000000, -1.000000)">
                <g id="user" transform="translate(717.000000, 24.000000)" sketch:type="MSShapeGroup">
                    <path d="M23.4893617,22.4 C27.8298089,24.000008 30,25.35555 30,26.4666667 L30,30 L15,30 L0,30 L0,26.4666667 C0,25.35555 2.17019106,24.000008 6.5106383,22.4 C8.5106483,21.6444407 9.87233681,20.8777817 10.5957447,20.1 C11.3191526,19.3222183 11.6808511,18.2666733 11.6808511,16.9333333 C11.6808511,16.444442 11.4468109,15.900003 10.9787234,15.3 C10.510636,14.699997 10.1702138,13.888894 9.95744681,12.8666667 C9.9148934,12.5999987 9.81914968,12.4000007 9.67021277,12.2666667 C9.52127585,12.1333327 9.37234117,12.0444447 9.22340426,12 C9.07446734,11.9555553 8.92553266,11.7666683 8.77659574,11.4333333 C8.62765883,11.0999983 8.53191511,10.6222253 8.4893617,10 C8.4893617,9.64444267 8.54255266,9.35555667 8.64893617,9.13333333 C8.75531968,8.91111 8.8510634,8.777778 8.93617021,8.73333333 L9.06382979,8.6 C8.89361617,7.48888333 8.76595787,6.51111533 8.68085106,5.66666667 C8.59574426,4.46666067 9.03191011,3.22222867 9.9893617,1.93333333 C10.9468133,0.644438 12.6170094,0 15,0 C17.3829906,0 19.0638249,0.644438 20.0425532,1.93333333 C21.0212815,3.22222867 21.4468091,4.46666067 21.3191489,5.66666667 L20.9361702,8.6 C21.3191509,8.77777867 21.5106383,9.24444067 21.5106383,10 C21.4680849,10.6222253 21.3723412,11.0999983 21.2234043,11.4333333 C21.0744673,11.7666683 20.9255327,11.9555553 20.7765957,12 C20.6276588,12.0444447 20.4787241,12.1333327 20.3297872,12.2666667 C20.1808503,12.4000007 20.0851066,12.5999987 20.0425532,12.8666667 C19.8723396,13.9333387 19.5425556,14.7555527 19.0531915,15.3333333 C18.5638273,15.911114 18.3191489,16.444442 18.3191489,16.9333333 C18.3191489,18.2666733 18.6914856,19.3222183 19.4361702,20.1 C20.1808548,20.8777817 21.5319051,21.6444407 23.4893617,22.4 L23.4893617,22.4 Z"></path>
                </g>
            </g>
        </g>
    </g>
</svg>