<?xml version="1.0" encoding="UTF-8" standalone="no"?>
<svg width="159px" height="58px" viewBox="0 0 159 58" version="1.1" xmlns="http://www.w3.org/2000/svg" xmlns:xlink="http://www.w3.org/1999/xlink" xmlns:sketch="http://www.bohemiancoding.com/sketch/ns">
    <!-- Generator: Sketch 3.5.1 (25234) - http://www.bohemiancoding.com/sketch -->
    <title>LOGO KOMA Modular</title>
    <desc>Created with Sketch.</desc>
    <defs></defs>
    <g id="Vstupní-strana" stroke="none" stroke-width="1" fill="none" fill-rule="evenodd" sketch:type="MSPage">
        <g id="Vstupní-strana-P(iPad)" sketch:type="MSArtboardGroup" transform="translate(-47.000000, -51.000000)">
            <g id="Login-screen" sketch:type="MSLayerGroup">
                <g id="LOGO-KOMA-Modular" transform="translate(47.000000, 51.000000)" sketch:type="MSShapeGroup">
                    <path d="M97.875,43.327381 L94.9070731,43.327381 C93.6235695,43.327381 92.5391239,43.7504323 91.7972824,44.5122575 L91.5976637,43.327381 L89.8852041,43.327381 L89.8852041,58 L92.1112894,58 L92.1112894,47.4747259 C92.1112894,46.091908 92.9955555,45.2175279 94.3934474,45.2175279 L97.875,45.2175279 L97.875,43.327381 L97.875,43.327381 Z M80.9755517,56.0436508 L77.7953037,56.0436508 C76.6389907,56.0436508 75.9030612,55.2192423 75.9030612,53.892894 L75.9030612,53.2740087 C75.9030612,51.9777652 76.6389907,51.1527778 77.7953037,51.1527778 L80.9755517,51.1527778 C82.1060426,51.1527778 82.8151171,51.8891876 82.8941327,53.0974324 L82.8941327,54.0989961 C82.8151171,55.3072409 82.1060426,56.0436508 80.9755517,56.0436508 L80.9755517,56.0436508 Z M85.8903061,58 L85.8903061,47.3061707 C85.8903061,44.9075859 84.2961505,43.327381 81.9054765,43.327381 L78.4889494,43.327381 C76.097716,43.327381 74.4750334,44.9075859 74.4750334,47.3061707 L74.4750334,47.9826094 L76.6956642,47.9826094 L76.6956642,47.2490616 C76.6956642,46.0076304 77.492742,45.2175279 78.745133,45.2175279 L81.6202066,45.2175279 C82.9011246,45.2175279 83.6982024,46.0076304 83.6982024,47.2490616 L83.6982024,50.4943036 C83.0152325,49.9864202 82.1325738,49.6753693 81.1078394,49.6753693 L77.9195282,49.6753693 C75.5282948,49.6753693 73.9056122,51.2566832 73.9056122,53.6541591 L73.9056122,54.0212102 C73.9056122,56.3915177 75.5282948,58 77.9195282,58 L81.1078394,58 C82.2752087,58 83.2708568,57.6329489 83.954386,56.9559558 L84.1820426,58 L85.8903061,58 L85.8903061,58 Z M67.9132653,58 L69.9107143,58 L69.9107143,37.4583333 L67.9132653,37.4583333 L67.9132653,58 Z M51.9336735,43.327381 L51.9336735,53.7955458 C51.9336735,56.3066856 53.6414574,58 56.1748846,58 L58.9074508,58 C60.1889879,58 61.2708268,57.5763942 62.0108851,56.814569 L62.2100241,58 L63.9183673,58 L63.9183673,43.327381 L61.7261613,43.327381 L61.7261613,54.0494876 C61.6405763,55.3197506 60.7299074,56.1092986 59.4204013,56.1092986 L56.4310802,56.1092986 C55.0365485,56.1092986 54.1538485,55.2343641 54.1538485,53.8238232 L54.1538485,43.327381 L51.9336735,43.327381 L51.9336735,43.327381 Z M44.942602,47.5136038 L44.942602,53.9808397 C44.8641029,55.2351778 44.0228194,56.0436508 42.8138293,56.0436508 L40.0539648,56.0436508 C38.7664756,56.0436508 37.9515306,55.1513727 37.9515306,53.7858422 L37.9515306,47.5136038 C37.9515306,46.1475255 38.7664756,45.2837302 40.0539648,45.2837302 L42.8138293,45.2837302 C44.1018349,45.2837302 44.942602,46.1475255 44.942602,47.5136038 L44.942602,47.5136038 Z M47.9387755,37.4583333 L45.7465694,37.4583333 L45.7465694,44.4817408 C45.0065111,43.8980932 44.0387855,43.5653595 42.9284183,43.5653595 L40.1952928,43.5653595 C37.6624249,43.5653595 35.9540816,45.2028455 35.9540816,47.7010752 L35.9540816,53.8637389 C35.9540816,56.3341499 37.6624249,58 40.1952928,58 L42.9284183,58 C44.2093961,58 45.291235,57.5832647 46.0312933,56.8337958 L46.2304322,58 L47.9387755,58 L47.9387755,37.4583333 L47.9387755,37.4583333 Z M32.9579082,53.7955458 L32.9579082,47.5312806 C32.9579082,44.9918635 31.2786526,43.327381 28.7161376,43.327381 L25.2149848,43.327381 C22.6809982,43.327381 20.9732143,44.9918635 20.9732143,47.5312806 L20.9732143,53.7955458 C20.9732143,56.3066856 22.6809982,58 25.2149848,58 L28.7161376,58 C31.2786526,58 32.9579082,56.3066856 32.9579082,53.7955458 L32.9579082,53.7955458 Z M29.9617347,53.7858422 C29.9617347,55.1513727 29.1468499,56.0436508 27.8326028,56.0436508 L25.0734586,56.0436508 C23.7860645,56.0436508 22.9706633,55.1513727 22.9706633,53.7858422 L22.9706633,47.5136038 C22.9706633,46.1475255 23.7860645,45.2837302 25.0734586,45.2837302 L27.8326028,45.2837302 C29.1468499,45.2837302 29.9617347,46.1475255 29.9617347,47.5136038 L29.9617347,53.7858422 L29.9617347,53.7858422 Z M14.6656608,58 L16.9783163,58 L16.9783163,38.4365079 L14.7221887,38.4365079 L8.48915816,50.0066635 L2.25612762,38.4365079 L0,38.4365079 L0,58 L2.34036525,58 L2.34036525,42.9919684 L8.48915816,54.4226318 L14.6656608,42.9919684 L14.6656608,58 L14.6656608,58 Z" id="Fill-1" fill="#A0ADA2"></path>
                    <path d="M33.8485325,29 L18.3412087,14.0856819 L33.0386926,0 L21.9849333,0 L11.0770561,10.7705691 L8.09728918,10.7705691 L8.09728918,0 L0,0 L0,29 L8.09728918,29 L8.09728918,18.2288633 L11.2850629,18.2288633 L22.187948,29 L33.8485325,29 L33.8485325,29 Z M62.7193396,20.3817391 C62.7193396,20.7941011 62.5133453,21 62.1013567,21 L45.4175112,21 C45.0049582,21 44.7995283,20.7941011 44.7995283,20.3817391 L44.7995283,7.61769683 C44.7995283,7.20589894 45.0049582,7 45.4175112,7 L62.1013567,7 C62.5133453,7 62.7193396,7.20589894 62.7193396,7.61769683 L62.7193396,20.3817391 L62.7193396,20.3817391 Z M70.6837002,22.3709097 L70.6837002,6.62909034 C70.6837002,2.65163614 68.0891088,0 62.5761575,0 L44.9427104,0 C39.4292037,0 36.8351677,2.65163614 36.8351677,6.62909034 L36.8351677,22.3709097 C36.8351677,26.3483639 39.4292037,29 44.9427104,29 L62.5761575,29 C68.0891088,29 70.6837002,26.3483639 70.6837002,22.3709097 L70.6837002,22.3709097 Z M106.334031,29 L114.487683,29 L114.487683,0 L106.334031,0 L95.5728855,13.6304995 L84.8100645,0 L76.6569706,0 L76.6569706,29 L84.8100645,29 L84.8100645,12.9250235 L95.5728855,26.5140911 L106.334031,12.9250235 L106.334031,29 L106.334031,29 Z M142.362945,16 L134.398585,16 L138.360878,8 L142.362945,16 L142.362945,16 Z M158.291667,29 L142.998755,0 L134.757759,0 L119.465409,29 L128.280444,29 L130.74061,24.0281822 L146.483991,24.0281822 L148.98516,29 L158.291667,29 L158.291667,29 Z" id="Fill-2" fill="#C5222A"></path>
                </g>
            </g>
        </g>
    </g>
</svg>